<svg xmlns="http://www.w3.org/2000/svg" viewBox="0 0 64 64">
  <circle cx="32" cy="32" r="32" fill="#128c7e"/>
  <path fill="#ffffff" d="M32 14c-9.94 0-18 8.06-18 18 0 3.18.83 6.16 2.28 8.75L14 50l9.5-2.2A17.9 17.9 0 0 0 32 50c9.94 0 18-8.06 18-18s-8.06-18-18-18Z"/>
  <path fill="#128c7e" d="M25.5 22.7c-.5-1.1-1-1.1-1.5-1.1h-1.3c-.4 0-1.1.2-1.7.8-.6.6-2.2 2.1-2.2 5.2s2.3 6.1 2.6 6.5c.3.4 4.4 7 10.9 9.5 5.4 2.1 6.5 1.7 7.6 1.6 1.2-.1 3.8-1.5 4.3-3 .5-1.5.5-2.8.4-3-.2-.3-.6-.5-1.3-.8-.7-.4-4.3-2.1-4.9-2.4-.7-.2-1.1-.4-1.6.4-.5.7-1.9 2.4-2.3 2.9-.4.5-.9.5-1.6.2-.7-.4-3-1.1-5.7-3.5-2.1-1.9-3.5-4.2-3.9-4.9-.4-.7 0-1.1.3-1.4.3-.3.7-.9 1.1-1.3.3-.4.5-.7.7-1.2.2-.5.1-.9-.1-1.2-.1-.4-1.5-3.9-2.1-5.3Z"/>
</svg>
